inDegrees=no
num_controls=7
num_derivatives=13
num_iterations=158
num_multipliers=7
num_parameters=0
num_slacks=7
num_states=26
objective=5.074068
objective_accelerations=0.404681
objective_balance=0.004072
objective_effort=0.362040
objective_height=4.279932
objective_ligament=0.023344
solver_duration=1451.081451
status=Solve_Succeeded
success=true
DataType=double
version=3
OpenSimVersion=4.4-2022-07-23-0e9fedc
endheader
time	/jointset/ground_pelvis/pelvis_tilt/value	/jointset/ground_pelvis/pelvis_tx/value	/jointset/ground_pelvis/pelvis_ty/value	/jointset/hip_r/hip_flexion_r/value	/jointset/hip_r/hip_adduction_r/value	/jointset/hip_r/hip_rotation_r/value	/jointset/back/lumbar_extension/value	/jointset/patellofemoral_r/patellar_flexion_r/value	/jointset/knee_r/knee_flexion_r/value	/jointset/knee_r/knee_adduction_r/value	/jointset/knee_r/knee_rotation_r/value	/jointset/ankle_r/ankle_angle_r/value	/jointset/subtalar_r/subtalar_angle_r/value	/jointset/ground_pelvis/pelvis_tilt/speed	/jointset/ground_pelvis/pelvis_tx/speed	/jointset/ground_pelvis/pelvis_ty/speed	/jointset/hip_r/hip_flexion_r/speed	/jointset/hip_r/hip_adduction_r/speed	/jointset/hip_r/hip_rotation_r/speed	/jointset/back/lumbar_extension/speed	/jointset/patellofemoral_r/patellar_flexion_r/speed	/jointset/knee_r/knee_flexion_r/speed	/jointset/knee_r/knee_adduction_r/speed	/jointset/knee_r/knee_rotation_r/speed	/jointset/ankle_r/ankle_angle_r/speed	/jointset/subtalar_r/subtalar_angle_r/speed	/forceset/tau_hip_flexion_r	/forceset/tau_hip_adduction_r	/forceset/tau_hip_rotation_r	/forceset/tau_knee_flexion_r	/forceset/tau_ankle_angle_r	/forceset/tau_subtalar_angle_r	/forceset/tau_lumbar_extension	lambda_cid13_p0	lambda_cid14_p0	lambda_cid14_p1	lambda_cid14_p2	lambda_cid14_p3	lambda_cid14_p4	lambda_cid14_p5	/jointset/ground_pelvis/pelvis_tilt/accel	/jointset/ground_pelvis/pelvis_tx/accel	/jointset/ground_pelvis/pelvis_ty/accel	/jointset/hip_r/hip_flexion_r/accel	/jointset/hip_r/hip_adduction_r/accel	/jointset/hip_r/hip_rotation_r/accel	/jointset/back/lumbar_extension/accel	/jointset/patellofemoral_r/patellar_flexion_r/accel	/jointset/knee_r/knee_flexion_r/accel	/jointset/knee_r/knee_adduction_r/accel	/jointset/knee_r/knee_rotation_r/accel	/jointset/ankle_r/ankle_angle_r/accel	/jointset/subtalar_r/subtalar_angle_r/accel	gamma_cid13_p0	gamma_cid14_p0	gamma_cid14_p1	gamma_cid14_p2	gamma_cid14_p3	gamma_cid14_p4	gamma_cid14_p5
0.5	-0.06615433369251229	0.0488929241676319	0.8422878757715618	0.7097613836650478	-0.2133075448075298	-0.1609431037038703	-0.628132774340167	0.8348051940778612	0.8348051940778625	-0.05773485109983743	0.1745325000274769	0.2840038681540393	0.149691056768429	-0.1824532028802741	-0.162630275404262	-0.3599740635391559	1.378742900459433	-0.01584993508842682	0.1221129146660943	-0.7433725689006818	1.620402534826405	1.620402534826399	-0.4240718867915631	-3.749125113856972e-05	0.5256207280942063	0.190734121620545	-0.1512894901337806	0.004383898550087919	0.01645435121860343	-0.2810973473979412	-0.003843841285149184	-0.0007605949830408911	0.2111655385393622	-14.91855775846587	-44.17485450094446	-6.172643698030003	-0.7555310142547981	-2.056426853566386	-646.2294616235262	65.15515311779792	0.1353348991178203	0.4225807823122824	-0.3087154792825739	-0.9916763296599554	-0.2121277793822368	-0.584365670469479	1.475310672472604	-1.104598246677349	-1.104598246677348	0.3496927092303756	0.004153112583143591	-0.377217504541895	-0.2763851817819792	-4.247185591818864e-08	-6.812230359832669e-08	-2.05485754697879e-10	-9.239167618834914e-07	3.46121198391688e-08	-1.241865047706812e-07	2.297369655123503e-07
0.51	-0.06797178253031605	0.04728788304747125	0.8386734663843962	0.7234973164903052	-0.2134771170181807	-0.1597496322625869	-0.6354917722641261	0.8509519325017286	0.8509519325017094	-0.06195564267750477	0.1745320952933264	0.2892402516102353	0.151583336219393	-0.1810005637589653	-0.1583654191842202	-0.3628290493191401	1.368254397260708	-0.01806046668099726	0.1166111799095833	-0.7283347557452567	1.608727639415044	1.608727639415042	-0.4200255664797025	-4.762541587598594e-05	0.5215780416497406	0.1876826972291121	-0.1563090492286403	0.00544999301664261	0.01678781260357885	-0.2847478445960972	-0.005692605054530976	-0.0001961857258746586	0.216072639376359	-14.10595358829783	-44.97461020412325	-6.204252614046483	-0.5943468391649298	-1.792869986887342	-649.7125607909245	65.38122402307987	0.1556204731544149	0.43032535623907	-0.2621006308226244	-1.105838200532726	-0.225066120369191	-0.5287299575002217	1.531855659139475	-1.231552973913523	-1.231552973912799	0.441204505022957	-0.004408631677915687	-0.4294818145708367	-0.3255031607794938	-4.424927531045014e-08	-4.93981454894246e-08	1.527847565587716e-07	-7.424156630198064e-07	6.69812347902803e-09	-1.015448197440925e-07	2.869256198390249e-07
0.52	-0.06977362656600135	0.04572586795238875	0.8350328650387372	0.7371226841064626	-0.2136687045989973	-0.15861030868471	-0.6426976242521191	0.8669753984143515	0.8669753984143497	-0.06613415048948505	0.1745314268276225	0.2944338706819513	0.1534439050078514	-0.1793322424569798	-0.1540250703886357	-0.3652124552377883	1.356629858639819	-0.02025300912056966	0.111283341982736	-0.7127433817073482	1.595748032581759	1.595748032581763	-0.4156151336534804	-9.023760764292157e-05	0.5170678511983974	0.1843919891194576	-0.1613286083235187	0.006516087483237371	0.01712127398874163	-0.2883983417942423	-0.007541368823903692	0.0003682235313525382	0.2209797402133357	-13.29156913660221	-45.77754846110652	-6.235291433688976	-0.4345414098456801	-1.546409105358412	-653.2430463488695	65.65506222705417	0.1784713352531831	0.4376792974207817	-0.2143995070153885	-1.218883414092553	-0.2085299487827176	-0.5495863045369274	1.586022848969354	-1.365540531061908	-1.365540531061904	0.4225152121027463	-0.002342492822419705	-0.4707183059174665	-0.3242419254264837	-4.481500836595246e-08	-1.551246873333351e-09	5.124888375988218e-07	-2.514912383825381e-07	-5.955483221233714e-08	-5.223983759062141e-08	4.159434604079289e-07
0.53	-0.07155784589443102	0.04420764425266939	0.8313708139148716	0.7506262901857674	-0.2138818074955966	-0.1575252966022352	-0.6497448657369088	0.8828623985118105	0.882862398511816	-0.07026865465309753	0.1745311242697798	0.2995802349335234	0.1552709424921031	-0.177483324763264	-0.1496051325177869	-0.367115491123874	1.343906065590607	-0.02236099101411214	0.1057633403050093	-0.6966257029034499	1.581441858926594	1.581441858926596	-0.4112202029086836	1.303251166818548e-05	0.5121381817174877	0.180982909905012	-0.1659254916954232	0.007232404450711137	0.0175463204395835	-0.2927309373101457	-0.00847300193354357	0.0008636604690189408	0.2255875508900657	-12.47761144890896	-46.29259616183815	-6.26280933355986	-0.2559572720415149	-1.525086858927723	-656.8126527820388	66.04323176666975	0.1923482145009208	0.4463127164858096	-0.1659191361595652	-1.326918548396172	-0.210900996646087	-0.54661766298016	1.636522248349931	-1.494665957854624	-1.494665957855075	0.4579001729117356	0.01417890006960994	-0.5141362738814227	-0.3540199643128379	-4.524637329773103e-08	2.528465449612312e-08	7.119495150693529e-07	1.445484009829485e-08	-9.659984015884711e-08	-2.391262976462406e-08	4.918498812678618e-07
0.54	-0.07332272680030773	0.04273405226857224	0.8276921997307938	0.7639971000749651	-0.2141157839485351	-0.1564941666492535	-0.6566285540632096	0.8986000348377002	0.8986000348377019	-0.07435722587581856	0.1745313578401465	0.3046752934893459	0.1570629333752383	-0.1754645579467462	-0.1450987272641931	-0.3685250672801462	1.33007062061896	-0.02442772038789512	0.1005069160837004	-0.6800327500095549	1.565875278266994	1.565875278266992	-0.4064285454741441	1.698806144770009e-05	0.5068067120484299	0.1773826688961983	-0.1705223750673528	0.007948721418184109	0.01797136689033695	-0.2970635328260632	-0.009404635043182114	0.001359097406686693	0.2301953615667748	-11.66681094285978	-46.81103449028859	-6.287259113988357	-0.08204411548640606	-1.518920904996505	-660.4408655026359	66.45753546406908	0.2124411598136353	0.4549727739697333	-0.1157075610527123	-1.441213798579594	-0.2002794448308454	-0.4968708132534273	1.681077666968762	-1.617621931949019	-1.617621931949004	0.5018605500512638	-0.02220540672861539	-0.5510783435471441	-0.362474284300171	-4.552907562453866e-08	2.88743461458983e-08	7.341196183778609e-07	3.148870581030289e-08	-1.013296718770062e-07	-1.879487438604466e-08	5.089947313859536e-07
0.55	-0.07506655800069158	0.04130587076345651	0.8240019673317782	0.7772241316619309	-0.2143701809086148	-0.1555146623979648	-0.6633440545921959	0.9141757941023297	0.9141757941023294	-0.07839623969306742	0.1745314334450046	0.3097150350225802	0.1588180129741036	-0.1732715576408284	-0.1405313685856622	-0.3694379429412545	1.315161432337483	-0.02644025638087055	0.09540945870282432	-0.6629998576947477	1.549074012060704	1.549074012060699	-0.4013363677800207	2.159381735511752e-06	0.5010746190716424	0.1736067414064854	-0.1751621388164178	0.008715168990840096	0.01831883970284744	-0.301027082275413	-0.01092527533654988	0.001896222171588296	0.2347689746488285	-10.86110858682472	-47.51629301644073	-6.309544686413593	0.07236787168574256	-1.296584306226006	-664.0171414931963	66.84763237647863	0.2272503171378991	0.4585274086428717	-0.0665603320550511	-1.541907531513191	-0.1999781431036007	-0.5139047710665196	1.724519727861773	-1.741754218050878	-1.741754218051422	0.5186731294942541	0.009513005262335854	-0.5943446203252009	-0.3890067342867043	-4.430982291427799e-08	3.386708322784738e-08	7.53820075283547e-07	6.235084419981526e-08	-1.06192282172091e-07	-1.443730583286421e-08	5.261054045181239e-07
0.5600000000000001	-0.07678755502778274	0.03992354484389567	0.8203051096234681	0.7902968441283633	-0.2146443507219413	-0.1545856770345949	-0.6698872012552091	0.9295774656542782	0.9295774656542782	-0.08238317638329822	0.1745314876836715	0.3146954416569308	0.1605345623474754	-0.1708977232886322	-0.1359276101532152	-0.3698501291389725	1.299206796512741	-0.02838229103675109	0.09040313849947877	-0.6455619768149369	1.531057735731136	1.531057735731127	-0.3960131200698425	1.271485621215588e-05	0.4949397322716281	0.1696766237975814	-0.1798019025655052	0.009481616563496442	0.01866631251534974	-0.3049906317247671	-0.0124459156299161	0.00243334693649125	0.2393425877308629	-10.06219687509288	-48.22498118018189	-6.328305596707782	0.221506603694018	-1.088859341907631	-667.6548263347777	67.26373566023042	0.2486079690693669	0.4622527247528707	-0.01556966837463673	-1.650303307232618	-0.1861791774117447	-0.4786433777470901	1.76207537996948	-1.86062395660468	-1.860623956604682	0.5480745532621912	-0.01712857589118847	-0.631637108192599	-0.3933123081382339	-4.128822415953544e-08	4.054347482840506e-08	7.705569565058469e-07	1.098069098023323e-07	-1.112142267594864e-07	-1.099196147016246e-08	5.431750652671884e-07
